<svg width="24" height="25" viewBox="0 0 24 25" fill="none" xmlns="http://www.w3.org/2000/svg">
<g clip-path="url(#clip0_2114_163)">
<path d="M12 2.662C15.204 2.662 15.584 2.674 16.849 2.732C18.157 2.792 19.504 3.09 20.457 4.043C21.419 5.005 21.708 6.339 21.768 7.651C21.826 8.916 21.838 9.296 21.838 12.5C21.838 15.704 21.826 16.084 21.768 17.349C21.709 18.65 21.404 20.01 20.457 20.957C19.495 21.919 18.162 22.208 16.849 22.268C15.584 22.326 15.204 22.338 12 22.338C8.796 22.338 8.416 22.326 7.151 22.268C5.86 22.209 4.482 21.897 3.543 20.957C2.586 20 2.292 18.653 2.232 17.349C2.174 16.084 2.162 15.704 2.162 12.5C2.162 9.296 2.174 8.916 2.232 7.651C2.291 6.355 2.599 4.987 3.543 4.043C4.503 3.083 5.842 2.792 7.151 2.732C8.416 2.674 8.796 2.662 12 2.662ZM12 0.5C8.741 0.5 8.332 0.514 7.052 0.572C5.197 0.657 3.355 1.173 2.014 2.514C0.668 3.86 0.157 5.698 0.072 7.552C0.014 8.832 0 9.241 0 12.5C0 15.759 0.014 16.168 0.072 17.448C0.157 19.301 0.675 21.148 2.014 22.486C3.359 23.831 5.2 24.343 7.052 24.428C8.332 24.486 8.741 24.5 12 24.5C15.259 24.5 15.668 24.486 16.948 24.428C18.802 24.343 20.646 23.826 21.986 22.486C23.333 21.139 23.843 19.302 23.928 17.448C23.986 16.168 24 15.759 24 12.5C24 9.241 23.986 8.832 23.928 7.552C23.843 5.697 23.326 3.854 21.986 2.514C20.643 1.171 18.797 0.656 16.948 0.572C15.668 0.514 15.259 0.5 12 0.5Z" fill="white"/>
<path d="M12.0018 6.33984C8.59884 6.33984 5.83984 9.09884 5.83984 12.5018C5.83984 15.9048 8.59884 18.6638 12.0018 18.6638C15.4048 18.6638 18.1638 15.9048 18.1638 12.5018C18.1638 9.09884 15.4048 6.33984 12.0018 6.33984ZM12.0018 16.5018C9.79284 16.5018 8.00184 14.7108 8.00184 12.5018C8.00184 10.2928 9.79284 8.50184 12.0018 8.50184C14.2108 8.50184 16.0018 10.2928 16.0018 12.5018C16.0018 14.7108 14.2108 16.5018 12.0018 16.5018Z" fill="white"/>
<path d="M18.4048 7.53234C19.2001 7.53234 19.8448 6.88763 19.8448 6.09234C19.8448 5.29705 19.2001 4.65234 18.4048 4.65234C17.6096 4.65234 16.9648 5.29705 16.9648 6.09234C16.9648 6.88763 17.6096 7.53234 18.4048 7.53234Z" fill="white"/>
</g>
<defs>
<clipPath id="clip0_2114_163">
<rect width="24" height="24" fill="white" transform="translate(0 0.5)"/>
</clipPath>
</defs>
</svg>
